<?xml version="1.0" encoding="UTF-8"?>
<!-- Generated by Pixelmator Pro 3.6.14 -->
<svg width="230" height="30" viewBox="0 0 230 30" xmlns="http://www.w3.org/2000/svg" xmlns:xlink="http://www.w3.org/1999/xlink">
    <clipPath id="clipPath1">
        <path d="M 0 0.000516 L 230.699997 0.000516 L 230.699997 29.999482 L 0 29.999482 Z"/>
    </clipPath>
    <g id="Group" clip-path="url(#clipPath1)">
        <path id="Path" fill="#ffffff" stroke="none" d="M 222.957611 28.947395 C 222.909286 29.060223 222.853012 29.18128 222.788498 29.310038 C 222.723984 29.454987 222.683899 29.543657 222.667709 29.576046 L 220.54071 29.576046 C 220.637344 29.366583 220.742203 29.132698 220.855042 28.87492 C 220.967865 28.633333 221.104584 28.335205 221.265732 27.980791 C 221.362625 27.77133 221.451035 27.577795 221.531738 27.400723 C 221.612167 27.223383 221.700836 27.021885 221.79747 26.796495 C 221.910294 26.587034 222.039322 26.321106 222.184265 25.99884 L 223.296097 23.581882 L 218.196274 12.028854 L 220.419907 12.028854 L 224.287125 21.189106 L 224.335434 21.189106 L 228.057449 12.028854 L 230.281082 12.028854 L 223.90033 26.748178 C 223.8358 26.893131 223.731216 27.118786 223.585999 27.424881 C 223.457245 27.747169 223.328217 28.053267 223.199463 28.343168 C 223.086639 28.649529 223.005936 28.85076 222.957611 28.947395 Z"/>
        <path id="path1" fill="#ffffff" stroke="none" d="M 210.38327 13.889933 L 210.38327 12.028881 L 212.558578 12.028881 L 212.558578 8.54847 L 214.612854 8.54847 L 214.612854 12.028881 L 217.634262 12.028881 L 217.634262 13.889933 L 214.612854 13.889933 L 214.612854 20.609062 C 214.612854 21.301907 214.749847 21.817516 215.023819 22.155895 C 215.31398 22.478157 215.74086 22.639303 216.304749 22.639303 C 216.56279 22.639303 216.804382 22.607073 217.030029 22.542616 C 217.255417 22.462044 217.473114 22.357313 217.682571 22.228395 L 217.682571 24.234478 C 217.424789 24.331163 217.158783 24.403667 216.884811 24.452009 C 216.611099 24.516468 216.312973 24.548672 215.990692 24.548672 C 214.959305 24.548672 214.129684 24.242546 213.501297 23.630251 C 212.87265 23.001839 212.558578 22.163965 212.558578 21.116604 L 212.558578 13.889933 L 210.38327 13.889933 Z"/>
        <path id="path2" fill="#ffffff" stroke="none" d="M 206.709854 24.355324 L 206.709854 12.028854 L 208.764389 12.028854 L 208.764389 24.355324 L 206.709854 24.355324 Z M 207.725037 9.756924 C 207.322311 9.756924 206.975861 9.611921 206.685699 9.321886 C 206.395798 9.031853 206.250854 8.685404 206.250854 8.282595 C 206.250854 7.863644 206.395798 7.517223 206.685699 7.243303 C 206.975861 6.953268 207.322311 6.808239 207.725037 6.808239 C 208.143967 6.808239 208.490417 6.953268 208.764389 7.243303 C 209.054291 7.517223 209.199509 7.863644 209.199509 8.282595 C 209.199509 8.685404 209.054291 9.031853 208.764389 9.321886 C 208.490417 9.611921 208.143967 9.756924 207.725037 9.756924 Z"/>
        <path id="path3" fill="#ffffff" stroke="none" d="M 198.49678 24.355297 L 193.518005 12.028854 L 195.717224 12.028854 L 199.536118 21.938362 L 199.584442 21.938362 L 203.45166 12.028854 L 205.602554 12.028854 L 200.575455 24.355297 L 198.49678 24.355297 Z"/>
        <path id="path4" fill="#ffffff" stroke="none" d="M 186.904968 24.742043 C 185.986664 24.742043 185.180954 24.564785 184.488052 24.21032 C 183.795151 23.855827 183.247467 23.372446 182.844482 22.760149 C 182.457947 22.131737 182.264404 21.422752 182.264404 20.633221 C 182.264404 19.730888 182.498306 18.973587 182.96553 18.36129 C 183.43277 17.73288 184.061157 17.265614 184.850693 16.959465 C 185.640228 16.637199 186.510208 16.476055 187.460876 16.476055 C 188.00882 16.476055 188.516418 16.524399 188.983643 16.621086 C 189.450882 16.701658 189.853882 16.806389 190.192108 16.935278 C 190.546524 17.04808 190.812531 17.160854 190.989609 17.273655 L 190.989609 16.524399 C 190.989609 15.589839 190.659348 14.848652 189.99884 14.300812 C 189.338058 13.752972 188.532608 13.479053 187.58194 13.479053 C 186.904968 13.479053 186.268616 13.632128 185.672348 13.938276 C 185.092285 14.22831 184.63327 14.63919 184.294785 15.170914 L 182.747864 14.010777 C 183.070145 13.527369 183.473145 13.108446 183.956314 12.753954 C 184.439743 12.399462 184.987671 12.125542 185.599884 11.932194 C 186.228256 11.738848 186.889038 11.64216 187.58194 11.64216 C 189.257629 11.64216 190.570679 12.08527 191.521347 12.971487 C 192.472031 13.857704 192.947495 15.050069 192.947495 16.548584 L 192.947495 24.355324 L 190.989609 24.355324 L 190.989609 22.590958 L 190.89296 22.590958 C 190.683502 22.945452 190.385376 23.291874 189.99884 23.630251 C 189.61203 23.952513 189.152756 24.218365 188.621017 24.427826 C 188.105453 24.637314 187.533615 24.742043 186.904968 24.742043 Z M 187.098495 22.929337 C 187.807327 22.929337 188.451904 22.752077 189.031967 22.397585 C 189.628235 22.043119 190.103439 21.567783 190.458115 20.9716 C 190.812531 20.375416 190.989609 19.722847 190.989609 19.013863 C 190.619263 18.756056 190.151749 18.546593 189.587875 18.385448 C 189.039932 18.224331 188.435715 18.143761 187.775192 18.143761 C 186.598862 18.143761 185.736862 18.385448 185.189178 18.868856 C 184.641235 19.352238 184.367264 19.948421 184.367264 20.657381 C 184.367264 21.334135 184.625046 21.881973 185.14061 22.300924 C 185.656433 22.719849 186.308975 22.929337 187.098495 22.929337 Z"/>
        <path id="path5" fill="#ffffff" stroke="none" d="M 174.809006 24.355297 L 174.809006 12.028854 L 176.766632 12.028854 L 176.766632 14.010751 L 176.863541 14.010751 C 177.024414 13.543484 177.290436 13.140648 177.661041 12.802271 C 178.047836 12.447779 178.482681 12.173859 178.966125 11.980513 C 179.465744 11.771049 179.957153 11.666319 180.440582 11.666319 C 180.811188 11.666319 181.101105 11.690477 181.310562 11.738821 C 181.52002 11.771049 181.713562 11.827436 181.890625 11.908009 L 181.890625 14.131597 C 181.632843 14.002707 181.350906 13.906019 181.044815 13.841562 C 180.754654 13.777103 180.456512 13.744875 180.150421 13.744875 C 179.554153 13.744875 179.00647 13.914064 178.506836 14.252442 C 178.007477 14.590819 177.604492 15.041998 177.298386 15.605953 C 177.008499 16.169907 176.863541 16.790249 176.863541 17.467003 L 176.863541 24.355297 L 174.809006 24.355297 Z"/>
        <path id="path6" fill="#ffffff" stroke="none" d="M 166.332047 29.962582 C 165.284729 29.962582 164.382385 29.785507 163.625244 29.43083 C 162.884033 29.092611 162.2798 28.657494 161.812286 28.125742 C 161.361237 27.59399 161.038956 27.054274 160.845688 26.506409 L 162.730835 25.708834 C 162.988617 26.385563 163.423737 26.949411 164.035934 27.400723 C 164.664322 27.867964 165.429688 28.101582 166.332047 28.101582 C 167.621216 28.101582 168.611969 27.723013 169.304855 26.965605 C 169.997757 26.224443 170.344208 25.185154 170.344208 23.847755 L 170.344208 22.470114 L 170.247574 22.470114 C 169.860779 23.066298 169.304855 23.573837 168.579834 23.992786 C 167.854828 24.395622 167.008743 24.597015 166.042145 24.597015 C 164.978638 24.597015 164.003799 24.323095 163.117645 23.775255 C 162.247406 23.227413 161.55452 22.470114 161.038956 21.503323 C 160.523392 20.52042 160.26561 19.392513 160.26561 18.1196 C 160.26561 16.846663 160.523392 15.726798 161.038956 14.760035 C 161.55452 13.77713 162.247406 13.011759 163.117645 12.463921 C 164.003799 11.91608 164.978638 11.64216 166.042145 11.64216 C 167.008743 11.64216 167.854828 11.851622 168.579834 12.270573 C 169.304855 12.673382 169.860779 13.180948 170.247574 13.793245 L 170.344208 13.793245 L 170.344208 12.028881 L 172.302094 12.028881 L 172.302094 23.871941 C 172.302094 25.241539 172.036102 26.377518 171.504333 27.27993 C 170.988785 28.182287 170.279694 28.85076 169.377335 29.285877 C 168.49118 29.73719 167.476257 29.962582 166.332047 29.962582 Z M 166.332047 22.735964 C 167.057068 22.735964 167.7258 22.558729 168.338257 22.204239 C 168.950439 21.83363 169.433884 21.301907 169.7883 20.609062 C 170.158905 19.916195 170.344208 19.086365 170.344208 18.1196 C 170.344208 17.120583 170.158905 16.282707 169.7883 15.605953 C 169.433884 14.913109 168.950439 14.389428 168.338257 14.034936 C 167.7258 13.680443 167.057068 13.503212 166.332047 13.503212 C 165.607025 13.503212 164.938293 13.688515 164.326096 14.05912 C 163.713654 14.413587 163.222244 14.937267 162.851639 15.630137 C 162.481033 16.306866 162.295731 17.136696 162.295731 18.1196 C 162.295731 19.102478 162.481033 19.940351 162.851639 20.633221 C 163.222244 21.309978 163.713654 21.83363 164.326096 22.204239 C 164.938293 22.558729 165.607025 22.735964 166.332047 22.735964 Z"/>
        <path id="path7" fill="#ffffff" stroke="none" d="M 156.350357 24.355324 L 156.350357 12.028854 L 158.404892 12.028854 L 158.404892 24.355324 L 156.350357 24.355324 Z M 157.36554 9.756924 C 156.962814 9.756924 156.616364 9.611921 156.326202 9.321886 C 156.036301 9.031853 155.891342 8.685404 155.891342 8.282595 C 155.891342 7.863644 156.036301 7.517223 156.326202 7.243303 C 156.616364 6.953268 156.962814 6.808239 157.36554 6.808239 C 157.784454 6.808239 158.130905 6.953268 158.404892 7.243303 C 158.695038 7.517223 158.839996 7.863644 158.839996 8.282595 C 158.839996 8.685404 158.695038 9.031853 158.404892 9.321886 C 158.130905 9.611921 157.784454 9.756924 157.36554 9.756924 Z"/>
        <path id="path8" fill="#ffffff" stroke="none" d="M 147.13562 13.889933 L 147.13562 12.028881 L 149.310959 12.028881 L 149.310959 8.54847 L 151.365219 8.54847 L 151.365219 12.028881 L 154.386353 12.028881 L 154.386353 13.889933 L 151.365219 13.889933 L 151.365219 20.609062 C 151.365219 21.301907 151.502197 21.817516 151.776184 22.155895 C 152.066071 22.478157 152.49324 22.639303 153.057098 22.639303 C 153.31488 22.639303 153.556732 22.607073 153.78212 22.542616 C 154.007782 22.462044 154.225464 22.357313 154.434921 22.228395 L 154.434921 24.234478 C 154.17688 24.331163 153.911148 24.403667 153.637161 24.452009 C 153.363205 24.516468 153.065323 24.548672 152.743042 24.548672 C 151.711655 24.548672 150.88179 24.242546 150.253403 23.630251 C 149.625015 23.001839 149.310959 22.163965 149.310959 21.116604 L 149.310959 13.889933 L 147.13562 13.889933 Z"/>
        <path id="path9" fill="#ffffff" stroke="none" d="M 135.366486 24.355324 L 135.366486 12.028881 L 137.324097 12.028881 L 137.324097 13.841589 L 137.420746 13.841589 C 137.743027 13.245405 138.266815 12.729795 138.991837 12.294731 C 139.733047 11.859694 140.538773 11.64216 141.408752 11.64216 C 142.923569 11.64216 144.05954 12.08527 144.816681 12.971487 C 145.590286 13.841589 145.976822 15.001725 145.976822 16.451897 L 145.976822 24.355324 L 143.922562 24.355324 L 143.922562 16.76609 C 143.922562 15.573723 143.632385 14.73585 143.052322 14.252468 C 142.488434 13.752972 141.755203 13.503212 140.852844 13.503212 C 140.176132 13.503212 139.580139 13.696558 139.064316 14.08328 C 138.548752 14.453887 138.146027 14.937267 137.855865 15.53345 C 137.565948 16.129635 137.420746 16.758045 137.420746 17.418686 L 137.420746 24.355324 L 135.366486 24.355324 Z"/>
        <path id="path10" fill="#ffffff" stroke="none" d="M 118.522194 24.355324 L 125.096214 7.049955 L 127.416489 7.049955 L 133.990768 24.355324 L 131.742966 24.355324 L 129.978607 19.593929 L 122.534355 19.593929 L 120.769989 24.355324 L 118.522194 24.355324 Z M 129.277756 17.660378 L 126.981636 11.424627 L 126.304665 9.563576 L 126.208031 9.563576 L 125.531334 11.424627 L 123.235214 17.660378 L 129.277756 17.660378 Z"/>
        <path id="path11" fill="#ffffff" stroke="none" d="M 45.062695 24.744141 C 39.671638 24.744141 35.142593 20.351578 35.142593 14.960736 C 35.142593 9.569868 39.671638 5.17733 45.062695 5.17733 C 48.044273 5.17733 50.164375 6.346388 51.761753 7.872749 L 49.878189 9.756393 C 48.732651 8.6819 47.182796 7.846495 45.062695 7.846495 C 41.129906 7.846495 38.053551 11.020041 38.053551 14.958108 C 38.053551 18.896149 41.129906 22.067093 45.062695 22.067093 C 47.613667 22.067093 49.069012 21.042509 49.998981 20.109886 C 50.760902 19.34539 51.262653 18.249897 51.454327 16.74456 L 44.994198 16.74456 L 44.994198 14.072767 L 54.052559 14.072767 C 54.147068 14.550892 54.194588 15.123606 54.194588 15.743603 C 54.194588 17.748117 53.645317 20.230732 51.882545 21.996159 C 50.167027 23.785236 47.973385 24.738886 45.062695 24.738886 L 45.062695 24.744141 Z"/>
        <path id="path12" fill="#ffffff" stroke="none" d="M 67.761024 18.444305 C 67.761024 22.07235 64.926254 24.744141 61.450623 24.744141 C 57.974991 24.744141 55.140221 22.07235 55.140221 18.444305 C 55.140221 14.816236 57.974991 12.14447 61.450623 12.14447 C 64.926254 12.14447 67.761024 14.792609 67.761024 18.444305 Z M 64.997131 18.444305 C 64.997131 16.177101 63.352768 14.627084 61.447968 14.627084 C 59.54343 14.627084 57.8988 16.177101 57.8988 18.444305 C 57.8988 20.71151 59.54343 22.261501 61.447968 22.261501 C 63.352768 22.261501 64.997131 20.687859 64.997131 18.444305 Z"/>
        <path id="path13" fill="#ffffff" stroke="none" d="M 81.498161 18.444305 C 81.498161 22.07235 78.663391 24.744141 75.187759 24.744141 C 71.712128 24.744141 68.877357 22.07235 68.877357 18.444305 C 68.877357 14.816236 71.712128 12.14447 75.187759 12.14447 C 78.663391 12.14447 81.498161 14.792609 81.498161 18.444305 Z M 78.734268 18.444305 C 78.734268 16.177101 77.089905 14.627084 75.185104 14.627084 C 73.280563 14.627084 71.635941 16.177101 71.635941 18.444305 C 71.635941 20.71151 73.280563 22.261501 75.185104 22.261501 C 77.089905 22.261501 78.734268 20.687859 78.734268 18.444305 Z"/>
        <path id="path14" fill="#ffffff" stroke="none" d="M 94.63903 12.525404 L 94.63903 23.835146 C 94.63903 28.487852 91.896385 30.397699 88.654373 30.397699 C 85.601646 30.397699 83.765343 28.345823 83.074303 26.675171 L 85.483505 25.674135 C 85.911728 26.701456 86.962486 27.917606 88.654373 27.917606 C 90.729874 27.917606 92.017174 26.630306 92.017174 24.218708 L 92.017174 23.312366 L 91.922668 23.312366 C 91.302513 24.076836 90.109718 24.744141 88.607124 24.744141 C 85.459885 24.744141 82.575203 22.001413 82.575203 18.467934 C 82.575203 14.934454 85.459885 12.14447 88.607124 12.14447 C 90.109718 12.14447 91.302513 12.811749 91.922668 13.552589 L 92.017174 13.552589 L 92.017174 12.525404 L 94.63903 12.525404 Z M 92.206192 18.467934 C 92.206192 16.248035 90.727226 14.627084 88.843658 14.627084 C 86.959831 14.627084 85.339088 16.250664 85.339088 18.467934 C 85.339088 20.685228 86.936203 22.261501 88.843658 22.261501 C 90.750847 22.261501 92.206192 20.661602 92.206192 18.467934 Z"/>
        <path id="path15" fill="#ffffff" stroke="none" d="M 99.394005 5.844635 L 99.394005 24.36058 L 96.627724 24.36058 L 96.627724 5.844635 L 99.394005 5.844635 Z"/>
        <path id="path16" fill="#ffffff" stroke="none" d="M 110.115318 20.51973 L 112.261703 21.951504 C 111.57093 22.978716 109.900017 24.744141 107.015335 24.744141 C 103.43988 24.744141 100.768112 21.975159 100.768112 18.444305 C 100.768112 14.698019 103.463509 12.14447 106.705513 12.14447 C 109.947266 12.14447 111.568275 14.745301 112.093651 16.153446 L 112.380096 16.868032 L 103.962601 20.351578 C 104.606392 21.615223 105.607239 22.261501 107.015335 22.261501 C 108.423424 22.261501 109.400917 21.57057 110.115318 20.51973 Z M 103.510757 18.252525 L 109.138092 15.914385 C 108.828018 15.126234 107.898041 14.577173 106.802681 14.577173 C 105.39698 14.577173 103.43988 15.817166 103.51342 18.252525 L 103.510757 18.252525 Z"/>
        <path id="path17" fill="#3186ff" stroke="none" d="M 23.813126 24.874437 C 25.052029 25.80361 26.910398 25.184172 25.206882 23.48068 C 20.096439 18.525089 21.180464 4.897251 14.831142 4.897251 C 8.481795 4.897251 9.565821 18.525089 4.455377 23.48068 C 2.597037 25.339024 4.61023 25.80361 5.849134 24.874437 C 10.649871 21.622337 10.340138 15.892455 14.831142 15.892455 C 19.322121 15.892455 19.012413 21.622337 23.813126 24.874437 Z"/>
        <mask id="mask1"/>
        <g id="g1" mask="url(#mask1)">
            <filter id="filter1" x="0" y="0" width="230" height="30" filterUnits="userSpaceOnUse" primitiveUnits="userSpaceOnUse" color-interpolation-filters="sRGB">
                <feGaussianBlur stdDeviation="1.032798"/>
            </filter>
            <g id="g2" filter="url(#filter1)">
                <path id="path18" fill="#ffe432" stroke="none" d="M 9.150603 7.095617 C 5.24485 6.652294 2.384083 3.601728 2.760901 0.28199 C 3.137718 -3.03775 6.609427 -5.369549 10.515181 -4.926224 C 14.420933 -4.482903 17.2817 -1.432335 16.904882 1.887403 C 16.528065 5.207144 13.056355 7.53894 9.150603 7.095617 Z"/>
            </g>
            <filter id="filter2" x="0" y="0" width="230" height="30" filterUnits="userSpaceOnUse" primitiveUnits="userSpaceOnUse" color-interpolation-filters="sRGB">
                <feGaussianBlur stdDeviation="4.993049"/>
            </filter>
            <g id="g3" filter="url(#filter2)">
                <path id="path19" fill="#fc413d" stroke="none" d="M 27.388042 16.953625 C 23.082203 17.953699 18.798349 15.348929 17.819784 11.135708 C 16.841221 6.922487 19.538511 2.696278 23.844349 1.696201 C 28.150187 0.696127 32.43404 3.300896 33.412605 7.514116 C 34.391171 11.727337 31.69388 15.953549 27.388042 16.953625 Z"/>
            </g>
            <filter id="filter3" x="0" y="0" width="230" height="30" filterUnits="userSpaceOnUse" primitiveUnits="userSpaceOnUse" color-interpolation-filters="sRGB">
                <feGaussianBlur stdDeviation="4.244561"/>
            </filter>
            <g id="g4" filter="url(#filter3)">
                <path id="path20" fill="#00b95c" stroke="none" d="M 4.636112 18.934616 C -0.996777 20.536453 -6.565516 18.310116 -7.802016 13.961946 C -9.038515 9.613779 -5.474539 4.790346 0.15835 3.188507 C 5.791238 1.586668 11.359977 3.813007 12.596477 8.161175 C 13.832976 12.509342 10.268999 17.332775 4.636112 18.934616 Z"/>
            </g>
            <filter id="filter4" x="0" y="0" width="230" height="30" filterUnits="userSpaceOnUse" primitiveUnits="userSpaceOnUse" color-interpolation-filters="sRGB">
                <feGaussianBlur stdDeviation="4.244561"/>
            </filter>
            <g id="g5" filter="url(#filter4)">
                <path id="path21" fill="#00b95c" stroke="none" d="M 4.636112 18.934616 C -0.996777 20.536453 -6.565516 18.310116 -7.802016 13.961946 C -9.038515 9.613779 -5.474539 4.790346 0.15835 3.188507 C 5.791238 1.586668 11.359977 3.813007 12.596477 8.161175 C 13.832976 12.509342 10.268999 17.332775 4.636112 18.934616 Z"/>
            </g>
            <filter id="filter5" x="0" y="0" width="230" height="30" filterUnits="userSpaceOnUse" primitiveUnits="userSpaceOnUse" color-interpolation-filters="sRGB">
                <feGaussianBlur stdDeviation="4.244561"/>
            </filter>
            <g id="g6" filter="url(#filter5)">
                <path id="path22" fill="#00b95c" stroke="none" d="M 8.591538 17.119907 C 5.105991 20.532433 -0.232434 20.732235 -3.332166 17.566174 C -6.431898 14.400113 -6.119132 9.067114 -2.633584 5.654589 C 0.851963 2.242064 6.190387 2.042263 9.290119 5.208324 C 12.389851 8.374384 12.077085 13.707382 8.591538 17.119907 Z"/>
            </g>
            <filter id="filter6" x="0" y="0" width="230" height="30" filterUnits="userSpaceOnUse" primitiveUnits="userSpaceOnUse" color-interpolation-filters="sRGB">
                <feGaussianBlur stdDeviation="4.033586"/>
            </filter>
            <g id="g7" filter="url(#filter6)">
                <path id="path23" fill="#3186ff" stroke="none" d="M 21.853983 35.332218 C 17.86323 36.259109 13.84779 33.650936 12.885247 29.506697 C 11.922705 25.362455 14.377555 21.25149 18.368309 20.324596 C 22.359064 19.397701 26.374504 22.005877 27.337046 26.150118 C 28.299589 30.294357 25.844738 34.405323 21.853983 35.332218 Z"/>
            </g>
            <filter id="filter7" x="0" y="0" width="230" height="30" filterUnits="userSpaceOnUse" primitiveUnits="userSpaceOnUse" color-interpolation-filters="sRGB">
                <feGaussianBlur stdDeviation="3.655573"/>
            </filter>
            <g id="g8" filter="url(#filter7)">
                <path id="path24" fill="#fbbc04" stroke="none" d="M 11.006066 8.383627 C 6.270394 6.25774 4.065273 0.894674 6.080793 -3.595116 C 8.096313 -8.084908 13.569236 -10.001232 18.304909 -7.875343 C 23.040581 -5.749458 25.245701 -0.386393 23.230183 4.103399 C 21.214663 8.593189 15.741739 10.509514 11.006066 8.383627 Z"/>
            </g>
            <filter id="filter8" x="0" y="0" width="230" height="30" filterUnits="userSpaceOnUse" primitiveUnits="userSpaceOnUse" color-interpolation-filters="sRGB">
                <feGaussianBlur stdDeviation="3.264578"/>
            </filter>
            <g id="g9" filter="url(#filter8)">
                <path id="path25" fill="#3186ff" stroke="none" d="M 0.681752 39.741184 C -4.197625 37.82576 4.141105 22.066031 6.214644 16.784088 C 8.288209 11.502174 13.92467 8.773144 18.804041 10.688644 C 23.683439 12.604145 29.466948 23.154463 27.393301 28.43635 C 25.31971 33.718292 5.561144 41.656601 0.681752 39.741184 Z"/>
            </g>
            <filter id="filter9" x="0" y="0" width="230" height="30" filterUnits="userSpaceOnUse" primitiveUnits="userSpaceOnUse" color-interpolation-filters="sRGB">
                <feGaussianBlur stdDeviation="2.921209"/>
            </filter>
            <g id="g10" filter="url(#filter9)">
                <path id="path26" fill="#749bff" stroke="none" d="M 30.24692 20.125814 C 28.940506 21.650452 25.531614 20.873001 22.632757 18.389273 C 19.733877 15.905543 18.442831 12.656126 19.749142 11.131462 C 21.05545 9.606823 24.46442 10.384302 27.363302 12.868002 C 30.262053 15.351731 31.553337 18.601149 30.24692 20.125814 Z"/>
            </g>
            <filter id="filter10" x="0" y="0" width="230" height="30" filterUnits="userSpaceOnUse" primitiveUnits="userSpaceOnUse" color-interpolation-filters="sRGB">
                <feGaussianBlur stdDeviation="2.467309"/>
            </filter>
            <g id="g11" filter="url(#filter10)">
                <path id="path27" fill="#fc413d" stroke="none" d="M 34.314449 12.898567 C 32.055187 16.238459 25.868181 15.9997 20.495386 12.365284 C 15.12259 8.730867 12.598573 3.077074 14.857835 -0.262817 C 17.117098 -3.602711 23.304104 -3.363949 28.676899 0.270466 C 34.049694 3.904882 36.573711 9.558676 34.314449 12.898567 Z"/>
            </g>
            <filter id="filter11" x="0" y="0" width="230" height="30" filterUnits="userSpaceOnUse" primitiveUnits="userSpaceOnUse" color-interpolation-filters="sRGB">
                <feGaussianBlur stdDeviation="3.053709"/>
            </filter>
            <g id="g12" filter="url(#filter11)">
                <path id="path28" fill="#ffee48" stroke="none" d="M 3.827249 13.669605 C 1.959913 12.895517 1.525185 9.665001 2.856257 6.454044 C 4.187329 3.24309 6.780152 1.267616 8.647489 2.041702 C 10.514825 2.81579 10.949553 6.046307 9.618481 9.257263 C 8.287408 12.46822 5.694586 14.443691 3.827249 13.669605 Z"/>
            </g>
        </g>
    </g>
</svg>
