<?xml version="1.0" encoding="UTF-8"?>
<!-- Generated by Pixelmator Pro 3.6.14 -->
<svg width="184" height="39" viewBox="0 0 184 39" xmlns="http://www.w3.org/2000/svg">
    <path id="Path" fill="#d97757" stroke="none" d="M 7.75 25.75 L 15.52 21.389999 L 15.65 21.01 L 15.52 20.799999 L 15.14 20.799999 L 13.84 20.719999 L 9.4 20.599998 L 5.55 20.439999 L 1.82 20.24 L 0.88 20.039999 L 0 18.879999 L 0.09 18.299999 L 0.88 17.769999 L 2.01 17.869999 L 4.51 18.039999 L 8.26 18.299999 L 10.98 18.459999 L 15.01 18.879999 L 15.65 18.879999 L 15.74 18.619999 L 15.52 18.459999 L 15.35 18.299999 L 11.47 15.67 L 7.27 12.889999 L 5.07 11.289999 L 3.88 10.48 L 3.28 9.719999 L 3.02 8.059999 L 4.1 6.869999 L 5.55 6.970001 L 5.92 7.07 L 7.39 8.199999 L 10.53 10.629999 L 14.63 13.65 L 15.23 14.15 L 15.47 13.98 L 15.5 13.860001 L 15.23 13.41 L 13 9.379999 L 10.62 5.279999 L 9.56 3.580002 L 9.28 2.560001 C 9.18 2.139999 9.11 1.790001 9.11 1.360001 L 10.34 -0.310001 L 11.02 -0.529999 L 12.66 -0.310001 L 13.35 0.290001 L 14.37 2.619999 L 16.02 6.290001 L 18.58 11.280001 L 19.33 12.76 L 19.73 14.129999 L 19.879999 14.549999 L 20.139999 14.549999 L 20.139999 14.309999 L 20.35 11.5 L 20.74 8.049999 L 21.120001 3.610001 L 21.25 2.360001 L 21.870001 0.860001 L 23.1 0.049999 L 24.059999 0.509998 L 24.85 1.639999 L 24.74 2.369999 L 24.27 5.419998 L 23.35 10.199999 L 22.75 13.4 L 23.1 13.4 L 23.5 13 L 25.120001 10.85 L 27.84 7.450001 L 29.040001 6.099998 L 30.440001 4.610001 L 31.34 3.900002 L 33.040001 3.900002 L 34.290001 5.759998 L 33.73 7.68 L 31.98 9.9 L 30.530001 11.780001 L 28.450001 14.58 L 27.15 16.82 L 27.27 17 L 27.58 16.969999 L 32.279999 15.969999 L 34.82 15.51 L 37.849998 14.99 L 39.220001 15.629999 L 39.369999 16.279999 L 38.830002 17.609999 L 35.59 18.41 L 31.790001 19.17 L 26.129999 20.51 L 26.059999 20.559999 L 26.139999 20.66 L 28.690001 20.9 L 29.780001 20.959999 L 32.450001 20.959999 L 37.419998 21.33 L 38.720001 22.189999 L 39.5 23.240002 L 39.369999 24.040001 L 37.369999 25.060001 L 34.669998 24.420002 L 28.370001 22.92 L 26.209999 22.379999 L 25.91 22.379999 L 25.91 22.559999 L 27.709999 24.32 L 31.01 27.299999 L 35.139999 31.139999 L 35.349998 32.09 L 34.82 32.84 L 34.259998 32.760002 L 30.629999 30.029999 L 29.23 28.799999 L 26.059999 26.130001 L 25.85 26.130001 L 25.85 26.41 L 26.58 27.48 L 30.440001 33.280003 L 30.639999 35.060001 L 30.360001 35.639999 L 29.360001 35.990002 L 28.26 35.790001 L 26 32.620003 L 23.67 29.049999 L 21.790001 25.849998 L 21.559999 25.98 L 20.450001 37.93 L 19.93 38.540001 L 18.73 39 L 17.73 38.240002 L 17.200001 37.010002 L 17.73 34.580002 L 18.370001 31.41 L 18.889999 28.889999 L 19.360001 25.760002 L 19.639999 24.720001 L 19.620001 24.650002 L 19.389999 24.68 L 17.030001 27.920002 L 13.44 32.77 L 10.6 35.810001 L 9.92 36.080002 L 8.74 35.470001 L 8.85 34.380001 L 9.51 33.41 L 13.44 28.41 L 15.81 25.310001 L 17.34 23.52 L 17.34 23.260002 L 17.24 23.260002 L 6.8 30.040001 L 4.94 30.279999 L 4.14 29.529999 L 4.24 28.299999 L 4.62 27.900002 L 7.76 25.740002 L 7.75 25.740002 Z"/>
    <path id="path1" fill="#ffffff" stroke="none" d="M 64.480003 33.02 C 59.459999 33.02 56.029999 30.220001 54.41 25.91 C 53.560001 23.66 53.150002 21.279999 53.18 18.879999 C 53.18 11.65 56.419998 6.630001 63.580002 6.630001 C 68.389999 6.630001 71.360001 8.73 73.050003 13.74 L 75.110001 13.74 L 74.830002 6.830002 C 71.949997 4.970001 68.349998 4.029999 63.970001 4.029999 C 57.799999 4.029999 52.549999 6.790001 49.630001 11.77 C 48.119999 14.4 47.349998 17.389999 47.41 20.42 C 47.41 25.950001 50.02 30.849998 54.919998 33.57 C 57.599998 35 60.610001 35.710003 63.650002 35.630001 C 68.43 35.630001 72.220001 34.720001 75.580002 33.130001 L 76.449997 25.510002 L 74.349998 25.510002 C 73.089996 28.990002 71.589996 31.08 69.099998 32.190002 C 67.879997 32.740002 66.339996 33.02 64.480003 33.02 Z M 86.129997 6.630001 L 86.330002 3.23 L 84.910004 3.23 L 78.589996 5.130001 L 78.589996 6.16 L 81.389999 7.459999 L 81.389999 31.24 C 81.389999 32.860001 80.559998 33.220001 78.389999 33.490002 L 78.389999 35.23 L 89.139999 35.23 L 89.139999 33.490002 C 86.959999 33.220001 86.139999 32.860001 86.139999 31.24 L 86.139999 6.639999 L 86.129997 6.639999 Z M 128.880005 35.630001 L 129.710007 35.630001 L 136.979996 34.25 L 136.979996 32.470001 L 135.960007 32.389999 C 134.259995 32.23 133.820007 31.879999 133.820007 30.490002 L 133.820007 17.809999 L 134.020004 13.74 L 132.869995 13.74 L 126 14.73 L 126 16.469999 L 126.669998 16.59 C 128.529999 16.859999 129.080002 17.379999 129.080002 18.679998 L 129.080002 29.98 C 127.300003 31.359999 125.599998 32.23 123.580002 32.23 C 121.339996 32.23 119.949997 31.09 119.949997 28.43 L 119.949997 17.82 L 120.150002 13.75 L 118.970001 13.75 L 112.089996 14.74 L 112.089996 16.48 L 112.800003 16.599998 C 114.660004 16.869999 115.209999 17.389999 115.209999 18.689999 L 115.209999 29.119999 C 115.209999 33.540001 117.709999 35.639999 121.690002 35.639999 C 124.730003 35.639999 127.220001 34.02 129.089996 31.769999 L 128.889999 35.639999 L 128.880005 35.639999 Z M 108.900002 21.559999 C 108.900002 15.91 105.900002 13.74 100.480003 13.74 C 95.699997 13.74 92.230003 15.719999 92.230003 19 C 92.230003 19.98 92.580002 20.73 93.290001 21.25 L 96.93 20.769999 C 96.769997 19.67 96.690002 19 96.690002 18.719999 C 96.690002 16.859999 97.68 15.92 99.690002 15.92 C 102.660004 15.92 104.160004 18.01 104.160004 21.369999 L 104.160004 22.469999 L 96.660004 24.720001 C 94.160004 25.400002 92.739998 25.990002 91.790001 27.369999 C 91.290001 28.209999 91.040001 29.189999 91.089996 30.170002 C 91.089996 33.370003 93.290001 35.630001 97.050003 35.630001 C 99.769997 35.630001 102.18 34.400002 104.279999 32.07 C 105.029999 34.400002 106.18 35.630001 108.230003 35.630001 C 109.889999 35.630001 111.389999 34.960003 112.730003 33.650002 L 112.330002 32.27 C 111.75 32.43 111.190002 32.510002 110.599998 32.510002 C 109.449997 32.510002 108.900002 31.6 108.900002 29.82 L 108.900002 21.559999 Z M 99.300003 32.43 C 97.25 32.43 95.980003 31.24 95.980003 29.150002 C 95.980003 27.73 96.650002 26.900002 98.080002 26.420002 L 104.160004 24.490002 L 104.160004 30.330002 C 102.220001 31.800001 101.080002 32.43 99.300003 32.43 Z M 162.600006 34.25 L 162.600006 32.470001 L 161.570007 32.389999 C 159.869995 32.23 159.440002 31.879999 159.440002 30.490002 L 159.440002 6.630001 L 159.639999 3.23 L 158.210007 3.23 L 151.889999 5.130001 L 151.889999 6.16 L 154.690002 7.459999 L 154.690002 15.280001 C 153.110001 14.199999 151.229996 13.66 149.320007 13.74 C 143.039993 13.74 138.139999 18.519999 138.139999 25.670002 C 138.139999 31.559999 141.660004 35.630001 147.460007 35.630001 C 150.460007 35.630001 153.070007 34.170002 154.690002 31.909998 L 154.490005 35.630001 L 155.330002 35.630001 L 162.600006 34.25 L 162.600006 34.25 Z M 149.440002 16.109999 C 152.440002 16.109999 154.690002 17.849998 154.690002 21.049999 L 154.690002 30.049999 C 153.309998 31.429998 151.429993 32.18 149.479996 32.150002 C 145.179993 32.150002 143 28.75 143 24.209999 C 143 19.109999 145.490005 16.109999 149.440002 16.109999 Z M 177.970001 20.609999 C 177.410004 17.969999 175.789993 16.469999 173.539993 16.469999 C 170.179993 16.469999 167.850006 19 167.850006 22.629999 C 167.850006 28 170.690002 31.479998 175.279999 31.479998 C 178.339996 31.449999 181.160004 29.790001 182.669998 27.130001 L 184.009995 27.490002 C 183.410004 32.150002 179.190002 35.630001 174.009995 35.630001 C 167.929993 35.630001 163.740005 31.129999 163.740005 24.73 C 163.740005 18.33 168.289993 13.74 174.369995 13.74 C 178.910004 13.74 182.110001 16.469999 183.139999 21.209999 L 167.300003 26.07 L 167.300003 23.93 L 177.970001 20.619999 L 177.970001 20.619999 Z"/>
</svg>
